<?xml version="1.0"?>
<svg xmlns="http://www.w3.org/2000/svg" viewBox="0 0 50 50" width="50px" height="50px">
    <path style="line-height:normal;text-indent:0;text-align:start;text-decoration-line:none;text-decoration-style:solid;text-decoration-color:#000;text-transform:none;block-progression:tb;isolation:auto;mix-blend-mode:normal" d="M 4 4 L 4 45 A 1.0001 1.0001 0 0 0 5 46 L 45 46 A 1.0001 1.0001 0 0 0 46 45 L 46 32 L 44 32 L 44 44 L 6 44 L 6 4 L 4 4 z M 37.990234 4.9902344 A 1.0001 1.0001 0 0 0 37.292969 6.7070312 L 41.585938 11 L 35.025391 11 C 24.998681 10.750465 18.501219 13.39498 14.695312 18.398438 C 10.889406 23.401895 9.8315993 30.506951 10 39.019531 A 1.0001907 1.0001907 0 1 0 12 38.980469 C 11.835401 30.660049 12.932016 24.020168 16.287109 19.609375 C 19.642203 15.198582 25.312319 12.759535 34.974609 13 L 34.988281 13 L 41.585938 13 L 37.292969 17.292969 A 1.0001 1.0001 0 1 0 38.707031 18.707031 L 45.414062 12 L 38.707031 5.2929688 A 1.0001 1.0001 0 0 0 37.990234 4.9902344 z" font-weight="400" font-family="sans-serif" white-space="normal" overflow="visible"/>
</svg>
